<?xml version="1.0" encoding="utf-8"?>
<!-- Generator: Adobe Illustrator 26.4.1, SVG Export Plug-In . SVG Version: 6.00 Build 0)  -->
<svg version="1.1" id="Capa_1" xmlns="http://www.w3.org/2000/svg" xmlns:xlink="http://www.w3.org/1999/xlink" x="0px" y="0px"
	 viewBox="0 0 39 39" style="enable-background:new 0 0 39 39;" xml:space="preserve">
<style type="text/css">
	.st0{fill:#232128;}
	.st1{fill:#FFFFFF;}
	.st2{fill:none;stroke:#FFFFFF;stroke-linecap:round;stroke-linejoin:round;stroke-miterlimit:10;}
</style>
<circle class="st0" cx="19.5" cy="19.5" r="19.5"/>
<g>
	<path class="st1" d="M11.1,23H9.4v-3.5H11c0.7,0,1.1,0.4,1.1,0.9c0,0.4-0.3,0.7-0.6,0.8c0.4,0.1,0.7,0.4,0.7,0.8
		C12.2,22.7,11.8,23,11.1,23z M10.8,20.2h-0.6v0.7h0.6c0.3,0,0.4-0.1,0.4-0.4S11.1,20.2,10.8,20.2z M10.9,21.6h-0.6v0.8h0.6
		c0.3,0,0.5-0.1,0.5-0.4C11.4,21.7,11.2,21.6,10.9,21.6z"/>
	<path class="st1" d="M14.9,22.4h-1.3L13.4,23h-0.9l1.3-3.5h1L16,23h-0.9L14.9,22.4z M14.3,20.5l-0.4,1.3h0.9L14.3,20.5z"/>
	<path class="st1" d="M18,19.5c0.8,0,1.5,0.5,1.7,1.2h-0.9c-0.1-0.3-0.4-0.5-0.7-0.5c-0.5,0-0.9,0.4-0.9,1s0.4,1,0.9,1
		c0.3,0,0.6-0.1,0.7-0.5h0.9c-0.2,0.8-0.8,1.2-1.7,1.2c-1,0-1.8-0.7-1.8-1.8S17,19.5,18,19.5z"/>
	<path class="st1" d="M21.1,21.5V23h-0.9v-3.5h0.9v1.5l1.2-1.5h1l-1.4,1.7l1.4,1.8h-1L21.1,21.5z"/>
	<path class="st1" d="M24.6,19.5h2.7v0.7h-0.9V23h-0.9v-2.8h-0.9V19.5z"/>
	<path class="st1" d="M29.4,23.1c-1,0-1.8-0.7-1.8-1.8c0-1.1,0.8-1.8,1.8-1.8c1,0,1.8,0.7,1.8,1.8C31.2,22.3,30.4,23.1,29.4,23.1z
		 M29.4,22.3c0.6,0,0.9-0.4,0.9-1c0-0.6-0.4-1-0.9-1c-0.6,0-0.9,0.4-0.9,1C28.4,21.9,28.8,22.3,29.4,22.3z"/>
	<path class="st1" d="M15.3,25.5h2.7v0.7h-0.9V29h-0.9v-2.8h-0.9V25.5z"/>
	<path class="st1" d="M20.2,29.1c-1,0-1.8-0.7-1.8-1.8c0-1.1,0.8-1.8,1.8-1.8c1,0,1.8,0.7,1.8,1.8C21.9,28.3,21.1,29.1,20.2,29.1z
		 M20.2,28.3c0.6,0,0.9-0.4,0.9-1c0-0.6-0.4-1-0.9-1c-0.6,0-0.9,0.4-0.9,1C19.2,27.9,19.6,28.3,20.2,28.3z"/>
	<path class="st1" d="M23.8,27.8h-0.5V29h-0.9v-3.5h1.4c0.9,0,1.3,0.5,1.3,1.1C25.1,27.2,24.7,27.8,23.8,27.8z M23.7,27.1
		c0.3,0,0.5-0.2,0.5-0.4s-0.1-0.4-0.5-0.4h-0.5v0.9H23.7z"/>
</g>
<polyline class="st2" points="15.3,13 20,8.3 24.6,12.9 "/>
</svg>
